<mxfile host="65bd71144e">
    <diagram id="Z9NfkE0Gaz2DqiLAO_H8" name="ページ1">
        <mxGraphModel dx="718" dy="520" grid="1" gridSize="10" guides="1" tooltips="1" connect="1" arrows="1" fold="1" page="1" pageScale="1" pageWidth="827" pageHeight="1169" math="0" shadow="0">
            <root>
                <mxCell id="0"/>
                <mxCell id="1" parent="0"/>
                <mxCell id="2" value="" style="rounded=1;whiteSpace=wrap;html=1;arcSize=13;" parent="1" vertex="1">
                    <mxGeometry x="297" y="132" width="40" height="260" as="geometry"/>
                </mxCell>
                <mxCell id="5" value="" style="rounded=1;whiteSpace=wrap;html=1;arcSize=13;" vertex="1" parent="1">
                    <mxGeometry x="347" y="132" width="40" height="260" as="geometry"/>
                </mxCell>
                <mxCell id="6" value="" style="rounded=1;whiteSpace=wrap;html=1;arcSize=13;" vertex="1" parent="1">
                    <mxGeometry x="397" y="132" width="40" height="260" as="geometry"/>
                </mxCell>
                <mxCell id="7" value="" style="rounded=1;whiteSpace=wrap;html=1;arcSize=13;rotation=-90;shadow=1;sketch=1;fillColor=none;" vertex="1" parent="1">
                    <mxGeometry x="347" y="82" width="40" height="160" as="geometry"/>
                </mxCell>
                <mxCell id="8" value="" style="rounded=1;whiteSpace=wrap;html=1;arcSize=13;rotation=-90;shadow=1;sketch=1;fillColor=none;" vertex="1" parent="1">
                    <mxGeometry x="347" y="132" width="40" height="160" as="geometry"/>
                </mxCell>
                <mxCell id="9" value="" style="rounded=1;whiteSpace=wrap;html=1;arcSize=13;rotation=-90;shadow=1;sketch=1;fillColor=none;" vertex="1" parent="1">
                    <mxGeometry x="347" y="232" width="40" height="160" as="geometry"/>
                </mxCell>
                <mxCell id="10" value="" style="rounded=1;whiteSpace=wrap;html=1;arcSize=13;rotation=-90;shadow=1;sketch=1;fillColor=none;" vertex="1" parent="1">
                    <mxGeometry x="347" y="182" width="40" height="160" as="geometry"/>
                </mxCell>
                <mxCell id="11" value="" style="rounded=1;whiteSpace=wrap;html=1;arcSize=13;rotation=-90;shadow=1;sketch=1;fillColor=none;" vertex="1" parent="1">
                    <mxGeometry x="347" y="282" width="40" height="160" as="geometry"/>
                </mxCell>
                <mxCell id="12" value="" style="rounded=1;whiteSpace=wrap;html=1;arcSize=13;rotation=-90;shadow=1;sketch=1;fillColor=none;" vertex="1" parent="1">
                    <mxGeometry x="347" y="22" width="40" height="160" as="geometry"/>
                </mxCell>
                <mxCell id="13" value="" style="rounded=1;whiteSpace=wrap;html=1;arcSize=13;" vertex="1" parent="1">
                    <mxGeometry x="237" y="132" width="40" height="260" as="geometry"/>
                </mxCell>
                <mxCell id="14" value="&lt;font style=&quot;font-size: 28px&quot;&gt;c0&amp;nbsp; c1&amp;nbsp; c2&lt;/font&gt;" style="text;html=1;strokeColor=none;fillColor=none;align=center;verticalAlign=middle;whiteSpace=wrap;rounded=0;shadow=1;sketch=1;" vertex="1" parent="1">
                    <mxGeometry x="290" y="87" width="150" height="30" as="geometry"/>
                </mxCell>
                <mxCell id="15" value="&lt;font style=&quot;font-size: 20px&quot;&gt;r0&lt;br&gt;&lt;br&gt;r1&lt;br&gt;&lt;br&gt;r2&lt;br&gt;&lt;br&gt;r3&lt;br&gt;&lt;br&gt;r4&lt;br&gt;&lt;/font&gt;" style="text;html=1;strokeColor=none;fillColor=none;align=center;verticalAlign=middle;whiteSpace=wrap;rounded=0;shadow=1;sketch=1;" vertex="1" parent="1">
                    <mxGeometry x="242" y="138" width="30" height="248" as="geometry"/>
                </mxCell>
                <mxCell id="21" style="edgeStyle=none;html=1;entryX=0.5;entryY=1;entryDx=0;entryDy=0;fontSize=23;" edge="1" parent="1" source="19" target="12">
                    <mxGeometry relative="1" as="geometry"/>
                </mxCell>
                <mxCell id="19" value="&lt;font style=&quot;font-size: 23px&quot;&gt;df.columns&lt;/font&gt;" style="text;html=1;strokeColor=none;fillColor=none;align=center;verticalAlign=middle;whiteSpace=wrap;rounded=0;shadow=1;sketch=1;fontSize=28;" vertex="1" parent="1">
                    <mxGeometry x="530" y="87" width="130" height="30" as="geometry"/>
                </mxCell>
                <mxCell id="24" style="edgeStyle=none;html=1;entryX=0.5;entryY=0;entryDx=0;entryDy=0;fontSize=23;" edge="1" parent="1" source="22" target="13">
                    <mxGeometry relative="1" as="geometry"/>
                </mxCell>
                <mxCell id="22" value="df.index" style="text;html=1;strokeColor=none;fillColor=none;align=center;verticalAlign=middle;whiteSpace=wrap;rounded=0;shadow=1;sketch=1;fontSize=23;" vertex="1" parent="1">
                    <mxGeometry x="172" y="80.5" width="100" height="26" as="geometry"/>
                </mxCell>
                <mxCell id="26" value="&lt;font style=&quot;font-size: 28px&quot;&gt;c0&amp;nbsp; c1&amp;nbsp; c2&lt;/font&gt;" style="text;html=1;strokeColor=none;fillColor=none;align=center;verticalAlign=middle;whiteSpace=wrap;rounded=0;shadow=1;sketch=1;" vertex="1" parent="1">
                    <mxGeometry x="292" y="40" width="150" height="30" as="geometry"/>
                </mxCell>
                <mxCell id="27" value="&lt;font style=&quot;font-size: 20px&quot;&gt;r0&lt;br&gt;&lt;br&gt;r1&lt;br&gt;&lt;br&gt;r2&lt;br&gt;&lt;br&gt;r3&lt;br&gt;&lt;br&gt;r4&lt;br&gt;&lt;/font&gt;" style="text;html=1;strokeColor=none;fillColor=none;align=center;verticalAlign=middle;whiteSpace=wrap;rounded=0;shadow=1;sketch=1;" vertex="1" parent="1">
                    <mxGeometry x="200" y="138" width="30" height="248" as="geometry"/>
                </mxCell>
                <mxCell id="28" value="" style="ellipse;whiteSpace=wrap;html=1;aspect=fixed;shadow=1;sketch=1;fontSize=23;fillColor=none;" vertex="1" parent="1">
                    <mxGeometry x="242" y="342" width="30" height="30" as="geometry"/>
                </mxCell>
                <mxCell id="29" value="" style="ellipse;whiteSpace=wrap;html=1;aspect=fixed;shadow=1;sketch=1;fontSize=23;fillColor=none;" vertex="1" parent="1">
                    <mxGeometry x="242" y="297" width="30" height="30" as="geometry"/>
                </mxCell>
                <mxCell id="30" value="" style="ellipse;whiteSpace=wrap;html=1;aspect=fixed;shadow=1;sketch=1;fontSize=23;fillColor=none;" vertex="1" parent="1">
                    <mxGeometry x="242" y="247" width="30" height="30" as="geometry"/>
                </mxCell>
                <mxCell id="31" value="" style="ellipse;whiteSpace=wrap;html=1;aspect=fixed;shadow=1;sketch=1;fontSize=23;fillColor=none;" vertex="1" parent="1">
                    <mxGeometry x="242" y="197" width="30" height="30" as="geometry"/>
                </mxCell>
                <mxCell id="32" value="" style="ellipse;whiteSpace=wrap;html=1;aspect=fixed;shadow=1;sketch=1;fontSize=23;fillColor=none;" vertex="1" parent="1">
                    <mxGeometry x="242" y="152" width="30" height="30" as="geometry"/>
                </mxCell>
                <mxCell id="33" value="" style="ellipse;whiteSpace=wrap;html=1;aspect=fixed;shadow=1;sketch=1;fontSize=23;fillColor=none;" vertex="1" parent="1">
                    <mxGeometry x="297" y="80.5" width="43" height="43" as="geometry"/>
                </mxCell>
                <mxCell id="34" value="" style="ellipse;whiteSpace=wrap;html=1;aspect=fixed;shadow=1;sketch=1;fontSize=23;fillColor=none;" vertex="1" parent="1">
                    <mxGeometry x="343.5" y="82" width="43" height="43" as="geometry"/>
                </mxCell>
                <mxCell id="35" value="" style="ellipse;whiteSpace=wrap;html=1;aspect=fixed;shadow=1;sketch=1;fontSize=23;fillColor=none;" vertex="1" parent="1">
                    <mxGeometry x="387" y="82" width="43" height="43" as="geometry"/>
                </mxCell>
                <mxCell id="49" value="" style="group" vertex="1" connectable="0" parent="1">
                    <mxGeometry x="430" y="460" width="115" height="36.5" as="geometry"/>
                </mxCell>
                <mxCell id="38" value="" style="ellipse;whiteSpace=wrap;html=1;aspect=fixed;shadow=1;sketch=1;fontSize=23;fillColor=none;movable=0;resizable=0;rotatable=0;deletable=0;editable=0;connectable=0;" vertex="1" parent="49">
                    <mxGeometry x="44" width="36.5" height="36.5" as="geometry"/>
                </mxCell>
                <mxCell id="45" value="df[&amp;nbsp; &amp;nbsp;c1&amp;nbsp; &amp;nbsp; ]" style="text;html=1;strokeColor=none;fillColor=none;align=center;verticalAlign=middle;whiteSpace=wrap;rounded=0;shadow=1;sketch=1;fontSize=23;movable=1;resizable=1;rotatable=1;deletable=1;editable=1;connectable=1;" vertex="1" parent="49">
                    <mxGeometry y="3.25" width="115" height="30" as="geometry"/>
                </mxCell>
                <mxCell id="51" value="" style="edgeStyle=none;html=1;fontSize=23;entryX=0.5;entryY=1;entryDx=0;entryDy=0;" edge="1" parent="1" source="45" target="5">
                    <mxGeometry relative="1" as="geometry">
                        <mxPoint x="367" y="410" as="targetPoint"/>
                    </mxGeometry>
                </mxCell>
                <mxCell id="52" value="" style="endArrow=none;dashed=1;html=1;dashPattern=1 3;strokeWidth=2;fontSize=23;" edge="1" parent="1">
                    <mxGeometry width="50" height="50" relative="1" as="geometry">
                        <mxPoint x="190" y="190" as="sourcePoint"/>
                        <mxPoint x="480" y="190" as="targetPoint"/>
                    </mxGeometry>
                </mxCell>
                <mxCell id="53" value="" style="endArrow=none;dashed=1;html=1;dashPattern=1 3;strokeWidth=2;fontSize=23;" edge="1" parent="1">
                    <mxGeometry width="50" height="50" relative="1" as="geometry">
                        <mxPoint x="188" y="237" as="sourcePoint"/>
                        <mxPoint x="478" y="237" as="targetPoint"/>
                    </mxGeometry>
                </mxCell>
                <mxCell id="54" value="" style="endArrow=none;dashed=1;html=1;dashPattern=1 3;strokeWidth=2;fontSize=23;" edge="1" parent="1">
                    <mxGeometry width="50" height="50" relative="1" as="geometry">
                        <mxPoint x="191" y="286" as="sourcePoint"/>
                        <mxPoint x="481" y="286" as="targetPoint"/>
                    </mxGeometry>
                </mxCell>
                <mxCell id="55" value="" style="endArrow=none;dashed=1;html=1;dashPattern=1 3;strokeWidth=2;fontSize=23;" edge="1" parent="1">
                    <mxGeometry width="50" height="50" relative="1" as="geometry">
                        <mxPoint x="192" y="337" as="sourcePoint"/>
                        <mxPoint x="482" y="337" as="targetPoint"/>
                    </mxGeometry>
                </mxCell>
                <mxCell id="56" value="" style="endArrow=none;dashed=1;html=1;dashPattern=1 3;strokeWidth=2;fontSize=23;" edge="1" parent="1">
                    <mxGeometry width="50" height="50" relative="1" as="geometry">
                        <mxPoint x="191" y="140" as="sourcePoint"/>
                        <mxPoint x="481" y="140" as="targetPoint"/>
                    </mxGeometry>
                </mxCell>
                <mxCell id="57" value="&lt;font style=&quot;font-size: 20px&quot;&gt;s0&lt;br&gt;&lt;br&gt;s1&lt;br&gt;&lt;br&gt;s2&lt;br&gt;&lt;br&gt;s3&lt;br&gt;&lt;br&gt;s4&lt;br&gt;&lt;/font&gt;" style="text;html=1;strokeColor=none;fillColor=none;align=center;verticalAlign=middle;whiteSpace=wrap;rounded=0;shadow=1;sketch=1;" vertex="1" parent="1">
                    <mxGeometry x="160" y="110" width="30" height="248" as="geometry"/>
                </mxCell>
                <mxCell id="59" value="" style="group" vertex="1" connectable="0" parent="1">
                    <mxGeometry x="160" y="460" width="180" height="40" as="geometry"/>
                </mxCell>
                <mxCell id="60" value="" style="ellipse;whiteSpace=wrap;html=1;aspect=fixed;shadow=1;sketch=1;fontSize=23;fillColor=none;movable=0;resizable=0;rotatable=0;deletable=0;editable=0;connectable=0;" vertex="1" parent="59">
                    <mxGeometry x="44" width="36.5" height="36.5" as="geometry"/>
                </mxCell>
                <mxCell id="61" value="df[ [&amp;nbsp; c0 ,&amp;nbsp; c2&amp;nbsp; &amp;nbsp;] ]" style="text;html=1;strokeColor=none;fillColor=none;align=center;verticalAlign=middle;whiteSpace=wrap;rounded=0;shadow=1;sketch=1;fontSize=23;movable=1;resizable=1;rotatable=1;deletable=1;editable=1;connectable=1;" vertex="1" parent="59">
                    <mxGeometry x="-14" y="3.25" width="195" height="30" as="geometry"/>
                </mxCell>
                <mxCell id="62" value="" style="ellipse;whiteSpace=wrap;html=1;aspect=fixed;shadow=1;sketch=1;fontSize=23;fillColor=none;" vertex="1" parent="59">
                    <mxGeometry x="92" width="40" height="40" as="geometry"/>
                </mxCell>
                <mxCell id="64" style="edgeStyle=none;html=1;entryX=0.5;entryY=1;entryDx=0;entryDy=0;fontSize=23;" edge="1" parent="1" target="2">
                    <mxGeometry relative="1" as="geometry">
                        <mxPoint x="343" y="437.29999999999995" as="targetPoint"/>
                        <mxPoint x="260" y="460" as="sourcePoint"/>
                    </mxGeometry>
                </mxCell>
                <mxCell id="65" style="edgeStyle=none;html=1;entryX=0.5;entryY=1;entryDx=0;entryDy=0;fontSize=23;" edge="1" parent="1" source="61" target="6">
                    <mxGeometry relative="1" as="geometry"/>
                </mxCell>
                <mxCell id="66" value="" style="shape=curlyBracket;whiteSpace=wrap;html=1;rounded=1;flipH=1;shadow=1;sketch=1;fontSize=23;fillColor=none;" vertex="1" parent="1">
                    <mxGeometry x="480" y="240" width="40" height="102" as="geometry"/>
                </mxCell>
                <mxCell id="67" value="df[ s2 : s4 ]" style="text;html=1;strokeColor=none;fillColor=none;align=center;verticalAlign=middle;whiteSpace=wrap;rounded=0;shadow=1;sketch=1;fontSize=23;" vertex="1" parent="1">
                    <mxGeometry x="530" y="277" width="130" height="30" as="geometry"/>
                </mxCell>
                <mxCell id="69" value="&lt;font color=&quot;#66b2ff&quot;&gt;&amp;lt;pd.Series&amp;gt;&lt;/font&gt;" style="text;html=1;strokeColor=none;fillColor=none;align=center;verticalAlign=middle;whiteSpace=wrap;rounded=0;shadow=1;sketch=1;fontSize=23;" vertex="1" parent="1">
                    <mxGeometry x="540" y="463.25" width="140" height="30" as="geometry"/>
                </mxCell>
                <mxCell id="70" value="&lt;font color=&quot;#ff3399&quot;&gt;&amp;lt;pd.DataFrame&amp;gt;&lt;/font&gt;" style="text;html=1;strokeColor=none;fillColor=none;align=center;verticalAlign=middle;whiteSpace=wrap;rounded=0;shadow=1;sketch=1;fontSize=23;" vertex="1" parent="1">
                    <mxGeometry x="545" y="307" width="185" height="30" as="geometry"/>
                </mxCell>
                <mxCell id="71" value="&lt;font color=&quot;#ff3399&quot;&gt;&amp;lt;pd.DataFrame&amp;gt;&lt;/font&gt;" style="text;html=1;strokeColor=none;fillColor=none;align=center;verticalAlign=middle;whiteSpace=wrap;rounded=0;shadow=1;sketch=1;fontSize=23;" vertex="1" parent="1">
                    <mxGeometry x="180" y="500" width="185" height="30" as="geometry"/>
                </mxCell>
                <mxCell id="72" value="" style="rounded=1;whiteSpace=wrap;html=1;fontSize=18;" vertex="1" parent="1">
                    <mxGeometry x="300" y="584" width="40" height="260" as="geometry"/>
                </mxCell>
                <mxCell id="73" value="" style="rounded=1;whiteSpace=wrap;html=1;arcSize=13;" vertex="1" parent="1">
                    <mxGeometry x="250" y="584" width="40" height="260" as="geometry"/>
                </mxCell>
                <mxCell id="74" value="&lt;font style=&quot;font-size: 20px&quot;&gt;r0&lt;br&gt;&lt;br&gt;r1&lt;br&gt;&lt;br&gt;r2&lt;br&gt;&lt;br&gt;r3&lt;br&gt;&lt;br&gt;r4&lt;br&gt;&lt;/font&gt;" style="text;html=1;strokeColor=none;fillColor=none;align=center;verticalAlign=middle;whiteSpace=wrap;rounded=0;shadow=1;sketch=1;" vertex="1" parent="1">
                    <mxGeometry x="255" y="590" width="30" height="248" as="geometry"/>
                </mxCell>
                <mxCell id="75" value="" style="ellipse;whiteSpace=wrap;html=1;aspect=fixed;shadow=1;sketch=1;fontSize=23;fillColor=none;" vertex="1" parent="1">
                    <mxGeometry x="255" y="794" width="30" height="30" as="geometry"/>
                </mxCell>
                <mxCell id="76" value="" style="ellipse;whiteSpace=wrap;html=1;aspect=fixed;shadow=1;sketch=1;fontSize=23;fillColor=none;" vertex="1" parent="1">
                    <mxGeometry x="255" y="749" width="30" height="30" as="geometry"/>
                </mxCell>
                <mxCell id="77" value="" style="ellipse;whiteSpace=wrap;html=1;aspect=fixed;shadow=1;sketch=1;fontSize=23;fillColor=none;" vertex="1" parent="1">
                    <mxGeometry x="255" y="699" width="30" height="30" as="geometry"/>
                </mxCell>
                <mxCell id="78" value="" style="ellipse;whiteSpace=wrap;html=1;aspect=fixed;shadow=1;sketch=1;fontSize=23;fillColor=none;" vertex="1" parent="1">
                    <mxGeometry x="255" y="649" width="30" height="30" as="geometry"/>
                </mxCell>
                <mxCell id="79" value="" style="ellipse;whiteSpace=wrap;html=1;aspect=fixed;shadow=1;sketch=1;fontSize=23;fillColor=none;" vertex="1" parent="1">
                    <mxGeometry x="255" y="604" width="30" height="30" as="geometry"/>
                </mxCell>
                <mxCell id="80" value="&lt;span style=&quot;font-size: 32px&quot;&gt;&lt;b&gt;ds&lt;/b&gt;&lt;/span&gt;" style="text;html=1;strokeColor=none;fillColor=none;align=center;verticalAlign=middle;whiteSpace=wrap;rounded=0;fontSize=18;" vertex="1" parent="1">
                    <mxGeometry x="80" y="564" width="60" height="30" as="geometry"/>
                </mxCell>
                <mxCell id="81" value="&lt;font color=&quot;#ff3399&quot;&gt;&amp;lt;pd.Series&amp;gt;&lt;/font&gt;" style="text;html=1;strokeColor=none;fillColor=none;align=center;verticalAlign=middle;whiteSpace=wrap;rounded=0;shadow=1;sketch=1;fontSize=23;" vertex="1" parent="1">
                    <mxGeometry x="52" y="594" width="120" height="30" as="geometry"/>
                </mxCell>
                <mxCell id="82" value="&lt;font style=&quot;font-size: 20px&quot;&gt;s0&lt;br&gt;&lt;br&gt;s1&lt;br&gt;&lt;br&gt;s2&lt;br&gt;&lt;br&gt;s3&lt;br&gt;&lt;br&gt;s4&lt;br&gt;&lt;/font&gt;" style="text;html=1;strokeColor=none;fillColor=none;align=center;verticalAlign=middle;whiteSpace=wrap;rounded=0;shadow=1;sketch=1;" vertex="1" parent="1">
                    <mxGeometry x="160" y="564" width="30" height="248" as="geometry"/>
                </mxCell>
                <mxCell id="83" value="" style="endArrow=none;dashed=1;html=1;dashPattern=1 3;strokeWidth=2;fontSize=23;" edge="1" parent="1">
                    <mxGeometry width="50" height="50" relative="1" as="geometry">
                        <mxPoint x="190" y="642" as="sourcePoint"/>
                        <mxPoint x="360" y="642" as="targetPoint"/>
                    </mxGeometry>
                </mxCell>
                <mxCell id="84" value="" style="endArrow=none;dashed=1;html=1;dashPattern=1 3;strokeWidth=2;fontSize=23;" edge="1" parent="1">
                    <mxGeometry width="50" height="50" relative="1" as="geometry">
                        <mxPoint x="190" y="690" as="sourcePoint"/>
                        <mxPoint x="360" y="690" as="targetPoint"/>
                    </mxGeometry>
                </mxCell>
                <mxCell id="85" value="" style="endArrow=none;dashed=1;html=1;dashPattern=1 3;strokeWidth=2;fontSize=23;" edge="1" parent="1">
                    <mxGeometry width="50" height="50" relative="1" as="geometry">
                        <mxPoint x="190" y="786" as="sourcePoint"/>
                        <mxPoint x="360" y="786" as="targetPoint"/>
                    </mxGeometry>
                </mxCell>
                <mxCell id="86" value="" style="endArrow=none;dashed=1;html=1;dashPattern=1 3;strokeWidth=2;fontSize=23;" edge="1" parent="1">
                    <mxGeometry width="50" height="50" relative="1" as="geometry">
                        <mxPoint x="190" y="594" as="sourcePoint"/>
                        <mxPoint x="360" y="594" as="targetPoint"/>
                    </mxGeometry>
                </mxCell>
                <mxCell id="87" value="&lt;font style=&quot;font-size: 20px&quot;&gt;r0&lt;br&gt;&lt;br&gt;r1&lt;br&gt;&lt;br&gt;r2&lt;br&gt;&lt;br&gt;r3&lt;br&gt;&lt;br&gt;r4&lt;br&gt;&lt;/font&gt;" style="text;html=1;strokeColor=none;fillColor=none;align=center;verticalAlign=middle;whiteSpace=wrap;rounded=0;shadow=1;sketch=1;" vertex="1" parent="1">
                    <mxGeometry x="212" y="590" width="30" height="248" as="geometry"/>
                </mxCell>
                <mxCell id="88" value="" style="endArrow=none;dashed=1;html=1;dashPattern=1 3;strokeWidth=2;fontSize=23;" edge="1" parent="1">
                    <mxGeometry width="50" height="50" relative="1" as="geometry">
                        <mxPoint x="190" y="740" as="sourcePoint"/>
                        <mxPoint x="360" y="740" as="targetPoint"/>
                    </mxGeometry>
                </mxCell>
                <mxCell id="89" value="" style="rounded=1;whiteSpace=wrap;html=1;strokeWidth=2;fillWeight=4;hachureGap=8;hachureAngle=45;fillColor=#1ba1e2;sketch=1;" vertex="1" parent="1">
                    <mxGeometry x="304" y="699" width="33" height="30" as="geometry"/>
                </mxCell>
                <mxCell id="90" style="edgeStyle=none;html=1;fontSize=32;strokeWidth=5;" edge="1" parent="1" source="91">
                    <mxGeometry relative="1" as="geometry">
                        <mxPoint x="321" y="714" as="targetPoint"/>
                    </mxGeometry>
                </mxCell>
                <mxCell id="91" value="ds[ r2 ]" style="text;html=1;strokeColor=none;fillColor=none;align=center;verticalAlign=middle;whiteSpace=wrap;rounded=0;shadow=1;sketch=1;fontSize=23;" vertex="1" parent="1">
                    <mxGeometry x="460" y="699" width="80" height="30" as="geometry"/>
                </mxCell>
                <mxCell id="92" value="" style="ellipse;whiteSpace=wrap;html=1;aspect=fixed;shadow=1;sketch=1;fontSize=23;fillColor=none;" vertex="1" parent="1">
                    <mxGeometry x="497" y="699" width="30" height="30" as="geometry"/>
                </mxCell>
                <mxCell id="93" value="&lt;font color=&quot;#ff3399&quot;&gt;&amp;lt;str&amp;gt;, &amp;lt;int&amp;gt;, &amp;lt;float&amp;gt;&lt;/font&gt;" style="text;html=1;strokeColor=none;fillColor=none;align=center;verticalAlign=middle;whiteSpace=wrap;rounded=0;shadow=1;sketch=1;fontSize=23;" vertex="1" parent="1">
                    <mxGeometry x="476.5" y="729" width="203.5" height="30" as="geometry"/>
                </mxCell>
                <mxCell id="94" value="" style="rounded=1;whiteSpace=wrap;html=1;strokeWidth=2;fillWeight=4;hachureGap=8;hachureAngle=45;fillColor=#1ba1e2;sketch=1;" vertex="1" parent="1">
                    <mxGeometry x="304" y="794" width="33" height="30" as="geometry"/>
                </mxCell>
                <mxCell id="95" style="edgeStyle=none;html=1;fontSize=32;strokeWidth=5;" edge="1" parent="1" source="96">
                    <mxGeometry relative="1" as="geometry">
                        <mxPoint x="321" y="809" as="targetPoint"/>
                    </mxGeometry>
                </mxCell>
                <mxCell id="96" value="ds[ r4 ]" style="text;html=1;strokeColor=none;fillColor=none;align=center;verticalAlign=middle;whiteSpace=wrap;rounded=0;shadow=1;sketch=1;fontSize=23;" vertex="1" parent="1">
                    <mxGeometry x="460" y="794" width="90" height="30" as="geometry"/>
                </mxCell>
                <mxCell id="97" value="&lt;font color=&quot;#ff3399&quot;&gt;&amp;lt;str&amp;gt;, &amp;lt;int&amp;gt;, &amp;lt;float&amp;gt;&lt;/font&gt;" style="text;html=1;strokeColor=none;fillColor=none;align=center;verticalAlign=middle;whiteSpace=wrap;rounded=0;shadow=1;sketch=1;fontSize=23;" vertex="1" parent="1">
                    <mxGeometry x="480" y="814" width="210" height="30" as="geometry"/>
                </mxCell>
                <mxCell id="98" value="" style="shape=curlyBracket;whiteSpace=wrap;html=1;rounded=1;flipH=1;shadow=1;sketch=1;fontSize=23;fontColor=#66B2FF;fillColor=none;" vertex="1" parent="1">
                    <mxGeometry x="347" y="585" width="20" height="114" as="geometry"/>
                </mxCell>
                <mxCell id="102" style="edgeStyle=none;html=1;fontSize=23;fontColor=#66B2FF;" edge="1" parent="1" source="99">
                    <mxGeometry relative="1" as="geometry">
                        <mxPoint x="370" y="642" as="targetPoint"/>
                    </mxGeometry>
                </mxCell>
                <mxCell id="99" value="ds[&amp;nbsp; r0 : r1 ]" style="text;html=1;strokeColor=none;fillColor=none;align=center;verticalAlign=middle;whiteSpace=wrap;rounded=0;shadow=1;sketch=1;fontSize=23;" vertex="1" parent="1">
                    <mxGeometry x="470" y="627" width="130" height="30" as="geometry"/>
                </mxCell>
                <mxCell id="100" value="" style="ellipse;whiteSpace=wrap;html=1;aspect=fixed;shadow=1;sketch=1;fontSize=23;fillColor=none;" vertex="1" parent="1">
                    <mxGeometry x="510" y="627" width="30" height="30" as="geometry"/>
                </mxCell>
                <mxCell id="101" value="" style="ellipse;whiteSpace=wrap;html=1;aspect=fixed;shadow=1;sketch=1;fontSize=23;fillColor=none;" vertex="1" parent="1">
                    <mxGeometry x="555" y="627" width="30" height="30" as="geometry"/>
                </mxCell>
                <mxCell id="103" value="ds[ s0 : s2 ]" style="text;html=1;strokeColor=none;fillColor=none;align=center;verticalAlign=middle;whiteSpace=wrap;rounded=0;shadow=1;sketch=1;fontSize=23;" vertex="1" parent="1">
                    <mxGeometry x="470" y="590" width="130" height="30" as="geometry"/>
                </mxCell>
                <mxCell id="107" value="&lt;font color=&quot;#ff3399&quot;&gt;&amp;lt;pd.Series&amp;gt;&lt;/font&gt;" style="text;html=1;strokeColor=none;fillColor=none;align=center;verticalAlign=middle;whiteSpace=wrap;rounded=0;shadow=1;sketch=1;fontSize=23;" vertex="1" parent="1">
                    <mxGeometry x="590" y="610" width="146.5" height="30" as="geometry"/>
                </mxCell>
                <mxCell id="114" style="edgeStyle=none;html=1;entryX=0.975;entryY=0.312;entryDx=0;entryDy=0;entryPerimeter=0;fontSize=23;fontColor=#66B2FF;" edge="1" parent="1" source="109" target="72">
                    <mxGeometry relative="1" as="geometry"/>
                </mxCell>
                <mxCell id="115" style="edgeStyle=none;html=1;entryX=1.1;entryY=0.681;entryDx=0;entryDy=0;entryPerimeter=0;fontSize=23;fontColor=#66B2FF;" edge="1" parent="1" source="109" target="72">
                    <mxGeometry relative="1" as="geometry"/>
                </mxCell>
                <mxCell id="109" value="ds[ [&amp;nbsp; r1 , r3 ] ]" style="text;html=1;strokeColor=none;fillColor=none;align=center;verticalAlign=middle;whiteSpace=wrap;rounded=0;shadow=1;sketch=1;fontSize=23;" vertex="1" parent="1">
                    <mxGeometry x="428" y="917" width="171" height="30" as="geometry"/>
                </mxCell>
                <mxCell id="110" value="" style="ellipse;whiteSpace=wrap;html=1;aspect=fixed;shadow=1;sketch=1;fontSize=23;fillColor=none;" vertex="1" parent="1">
                    <mxGeometry x="490" y="917" width="30" height="30" as="geometry"/>
                </mxCell>
                <mxCell id="111" value="" style="ellipse;whiteSpace=wrap;html=1;aspect=fixed;shadow=1;sketch=1;fontSize=23;fillColor=none;" vertex="1" parent="1">
                    <mxGeometry x="535" y="917" width="30" height="30" as="geometry"/>
                </mxCell>
                <mxCell id="112" value="ds[ [r1 , r3 ]" style="text;html=1;strokeColor=none;fillColor=none;align=center;verticalAlign=middle;whiteSpace=wrap;rounded=0;shadow=1;sketch=1;fontSize=23;" vertex="1" parent="1">
                    <mxGeometry x="450" y="880" width="130" height="30" as="geometry"/>
                </mxCell>
                <mxCell id="113" value="&lt;font color=&quot;#ff3399&quot;&gt;&amp;lt;pd.Series&amp;gt;&lt;/font&gt;" style="text;html=1;strokeColor=none;fillColor=none;align=center;verticalAlign=middle;whiteSpace=wrap;rounded=0;shadow=1;sketch=1;fontSize=23;" vertex="1" parent="1">
                    <mxGeometry x="570" y="900" width="146.5" height="30" as="geometry"/>
                </mxCell>
                <mxCell id="117" value="&lt;font color=&quot;#ffffff&quot;&gt;df .&amp;nbsp; c1&lt;/font&gt;" style="text;html=1;strokeColor=none;fillColor=none;align=center;verticalAlign=middle;whiteSpace=wrap;rounded=0;shadow=1;sketch=1;fontSize=23;fontColor=#66B2FF;" vertex="1" parent="1">
                    <mxGeometry x="428" y="510" width="112" height="30" as="geometry"/>
                </mxCell>
                <mxCell id="118" value="" style="ellipse;whiteSpace=wrap;html=1;aspect=fixed;shadow=1;sketch=1;fontSize=23;fillColor=none;" vertex="1" parent="1">
                    <mxGeometry x="490" y="510" width="30" height="30" as="geometry"/>
                </mxCell>
            </root>
        </mxGraphModel>
    </diagram>
</mxfile>
